# xmcd
# 
# Track frame offsets:
#     150
#     4579
#     20590
#     37074
#     57762
#     72177
#     87212
#     101248
#     116986
#     132330
#     150077
#     165467
#     179075
#     200438
#     215218
#     237353
#     249811
#     265161
#     282175
#     294636
# 
# Disc length: 4168
# 
# Revision: 2
# Processed by: cddbd v1.5.2PL0 Copyright (c) Steve Scherf et al.
# Submitted via: fre:ac v1.0.17
# 
DISCID=22104614
DTITLE=RAF 3.0 - RAF 3.0
DYEAR=2012
DGENRE=Hip-Hop
TTITLE0=Intro (Das Dritte Auge)
TTITLE1=Roboter
TTITLE2=Registriert
TTITLE3=Fallen feat. Nazar
TTITLE4=Sklave
TTITLE5=Lach Für Mein Twitta
TTITLE6=Nichts Verletzt So
TTITLE7=In Meiner Zone
TTITLE8=Wie Kannst Du Nur
TTITLE9=Playmobil feat Marteria
TTITLE10=Luxus feat. Konshens
TTITLE11=Crown Club
TTITLE12=Nicht Mit Uns feat. Sizzla
TTITLE13=Dumm and Glücklich
TTITLE14=Tumor
TTITLE15=Roboter Rmx feat. Motrip and Silla
TTITLE16=Jeder Tag
TTITLE17=Hinter Mir
TTITLE18=Reichtum feat. Tarek K.I.Z
TTITLE19=Wo sind die Winner
EXTD=Premium Edition
EXTT0=
EXTT1=
EXTT2=
EXTT3=
EXTT4=
EXTT5=
EXTT6=
EXTT7=
EXTT8=
EXTT9=
EXTT10=
EXTT11=
EXTT12=
EXTT13=
EXTT14=
EXTT15=
EXTT16=
EXTT17=
EXTT18=
EXTT19=
PLAYORDER=
